<?xml version="1.0" encoding="UTF-8"?>
<!DOCTYPE svg PUBLIC "-//W3C//DTD SVG 1.1//EN" "http://www.w3.org/Graphics/SVG/1.1/DTD/svg11.dtd">
<svg
   width="16pt"
   height="16pt"
   viewBox="0 0 20.000001 20.000001"
   version="1.1"
   xmlns="http://www.w3.org/2000/svg"
   xmlns:svg="http://www.w3.org/2000/svg">
  <path
     fill="#000"
     d="M 19.452437,8.6231034 V 16.935119 H 16.159378 V 8.8674187 c 0,-1.700661 -0.715557,-2.5638638 -2.14684,-2.5638638 -1.58251,0 -2.375641,1.0239774 -2.375641,3.0487436 V 13.768222 H 8.3632736 V 9.3522985 c 0,-2.0247662 -0.7933004,-3.0487436 -2.3758109,-3.0487436 -1.4312837,0 -2.1468394,0.8632028 -2.1468394,2.5638638 V 16.935119 H 0.54756301 V 8.6231034 c 0,-1.698786 0.43253888,-3.0487446 1.30136839,-4.0474885 C 2.7448685,3.57687 3.9181976,3.0648818 5.3747129,3.0648818 c 1.685147,0 2.961282,0.6477006 3.8050484,1.943272 L 10,6.3831745 10.82041,5.0081538 c 0.843596,-1.2955714 2.119731,-1.943272 3.805046,-1.943272 1.456347,0 2.629675,0.5119882 3.525783,1.5107331 0.868659,0.9987439 1.301198,2.3487025 1.301198,4.0474885"
      />
</svg>
